<?xml version="1.0" encoding="utf-8"?>
<!-- Generator: Adobe Illustrator 23.1.0, SVG Export Plug-In . SVG Version: 6.00 Build 0)  -->
<svg version="1.1" id="Layer_1" xmlns="http://www.w3.org/2000/svg" xmlns:xlink="http://www.w3.org/1999/xlink" x="0px" y="0px"
	 viewBox="0 0 300 300" style="enable-background:new 0 0 300 300;" xml:space="preserve">
<style type="text/css">
	.st0{opacity:0.5;}
</style>
<g class="st0">
	<path d="M150,30c32.05,0,62.19,12.48,84.85,35.15S270,117.95,270,150s-12.48,62.19-35.15,84.85S182.05,270,150,270
		s-62.19-12.48-84.85-35.15S30,182.05,30,150s12.48-62.19,35.15-84.85S117.95,30,150,30 M150,0C67.16,0,0,67.16,0,150
		s67.16,150,150,150s150-67.16,150-150S232.84,0,150,0L150,0z"/>
</g>
</svg>
